PathFileType	4	(X/Y/Z)	/Users/itak/Documents/Research/Walk-IL/dataset/trc/00264_00009.trc
DataRate	CameraRate	NumFrames	NumMarkers	Units	OrigDataRate	OrigDataStartFrame	OrigNumFrames
100.000000	100.000000	4	53	mm	100.000000	366	488
Frame#	Time	RPSI			LPSI			L3			STRN			T10			C7			CLAV			RBAK			LBAK			LSHO			LUPA			LAEL			LAOL			LWTS			LWPS			LFRA			LIFD			LHPS			LHTS			RSHO			RUPA			RAEL			RAOL			RWTS			RWPS			RFRA			RIFD			RHTS			RHPS			RBHD			LFHD			RFHD			LBHD			LHIP			RHIP			RASI			LASI			LKNE			LTHI			LANK			LTIP			LTOE			LMT1			LMT5			LHEE			RKNE			RTHI			RANK			RTIP			RTOE			RMT1			RMT5			RHEE			
		X1	Y1	Z1	X2	Y2	Z2	X3	Y3	Z3	X4	Y4	Z4	X5	Y5	Z5	X6	Y6	Z6	X7	Y7	Z7	X8	Y8	Z8	X9	Y9	Z9	X10	Y10	Z10	X11	Y11	Z11	X12	Y12	Z12	X13	Y13	Z13	X14	Y14	Z14	X15	Y15	Z15	X16	Y16	Z16	X17	Y17	Z17	X18	Y18	Z18	X19	Y19	Z19	X20	Y20	Z20	X21	Y21	Z21	X22	Y22	Z22	X23	Y23	Z23	X24	Y24	Z24	X25	Y25	Z25	X26	Y26	Z26	X27	Y27	Z27	X28	Y28	Z28	X29	Y29	Z29	X30	Y30	Z30	X31	Y31	Z31	X32	Y32	Z32	X33	Y33	Z33	X34	Y34	Z34	X35	Y35	Z35	X36	Y36	Z36	X37	Y37	Z37	X38	Y38	Z38	X39	Y39	Z39	X40	Y40	Z40	X41	Y41	Z41	X42	Y42	Z42	X43	Y43	Z43	X44	Y44	Z44	X45	Y45	Z45	X46	Y46	Z46	X47	Y47	Z47	X48	Y48	Z48	X49	Y49	Z49	X50	Y50	Z50	X51	Y51	Z51	X52	Y52	Z52	X53	Y53	Z53	

367	3.66	-160.7935485839844	1019.432006835938	-274.5106506347656	-280.0850219726562	1019.838012695312	-288.5569458007812	-233.89111328125	1099.307006835938	-275.7445068359375	-206.9220886230469	1291.081909179688	-523.8626098632812	-224.8248596191406	1226.447387695312	-270.1983642578125	-222.5828399658203	1489.67236328125	-329.6296081542969	-206.9497985839844	1407.65966796875	-495.224365234375	-158.4883880615234	1347.377197265625	-250.5659484863281	-333.1458740234375	1451.202026367188	-318.7035217285156	-383.2923278808594	1452.95751953125	-410.9783325195312	-462.7568054199219	1334.07177734375	-380.4515075683594	-489.8700866699219	1124.303466796875	-379.2955322265625	-436.9667358398438	1110.354614257812	-309.8291015625	-436.3468933105469	890.1997680664062	-472.6630859375	-514.230224609375	873.3658447265625	-441.4139099121094	-504.6531372070312	1016.664489746094	-397.9223937988281	-440.9580993652344	697.1795654296875	-465.803466796875	-509.100341796875	784.3675537109375	-456.0779113769531	-458.7723693847656	788.057373046875	-501.2667541503906	-48.77083206176758	1447.20458984375	-370.983154296875	13.81877326965332	1380.558349609375	-346.6029052734375	57.74993133544922	1100.489990234375	-334.3110961914062	-34.41897964477539	1091.873657226562	-312.2607116699219	28.58003234863281	896.923095703125	-490.3081970214844	88.78636932373047	878.29931640625	-434.3587036132812	73.64376831054688	1033.942138671875	-365.0151062011719	24.85462951660156	708.5960693359375	-525.290283203125	49.19799041748047	782.342529296875	-542.0776977539062	95.48583221435547	776.2095336914062	-486.2773132324219	-162.2525634765625	1651.1982421875	-377.1609497070312	-245.3638305664062	1684.227294921875	-586.0171508789062	-145.2444305419922	1682.29931640625	-579.810546875	-292.3525390625	1657.18359375	-430.4472961425781	-392.285888671875	953.0802612304688	-427.376953125	-38.91039657592773	981.8698120117188	-353.7100830078125	-51.68917083740234	1027.635375976562	-456.9822692871094	-335.7749938964844	1007.360046386719	-502.0921020507812	-326.5125427246094	510.1154479980469	-587.72412109375	-368.40087890625	638.8388671875	-535.060302734375	-296.8381042480469	30.80931282043457	-621.4629516601562	-321.4383850097656	279.3605041503906	-602.3341064453125	-222.3936767578125	63.47296142578125	-825.3821411132812	-185.4176177978516	49.75239181518555	-755.1674194335938	-298.5087890625	39.58578491210938	-748.5026245117188	-250.5662384033203	34.33488082885742	-555.0634155273438	-95.87938690185547	503.2040405273438	-301.5033874511719	-34.35282135009766	755.9400634765625	-381.5494995117188	-173.1974182128906	52.29039764404297	-97.67494964599609	-119.5676498413086	387.3733215332031	-273.5619201660156	-162.8752899169922	39.76312637329102	-310.5311279296875	-216.3344116210938	43.1783561706543	-267.481201171875	-120.7018280029297	31.55858993530273	-193.0660095214844	-243.037109375	71.91233825683594	-51.67835235595703	
368	3.67	-159.8511199951172	1019.825073242188	-282.3155212402344	-279.2817687988281	1020.467651367188	-295.898681640625	-233.2718658447266	1099.444702148438	-282.9662780761719	-206.7313537597656	1291.904541015625	-530.5642700195312	-224.3197784423828	1226.534912109375	-277.1600341796875	-222.6872100830078	1489.88671875	-335.77490234375	-206.8630523681641	1408.382690429688	-501.5732421875	-158.5934753417969	1347.402587890625	-257.1536865234375	-333.2673034667969	1451.295043945312	-324.9608764648438	-383.2998962402344	1453.210205078125	-417.2981872558594	-462.6318054199219	1334.085693359375	-387.477783203125	-489.4073181152344	1124.267944335938	-387.6553039550781	-436.7298278808594	1110.023559570312	-318.1205139160156	-435.5920715332031	890.4893798828125	-481.7711181640625	-513.6461181640625	873.6655883789062	-450.8569030761719	-504.11328125	1016.7412109375	-406.7901306152344	-440.288818359375	697.376220703125	-475.1738891601562	-508.5407409667969	784.6893310546875	-465.6694946289062	-457.9507446289062	788.3766479492188	-510.6020812988281	-48.76084518432617	1447.733642578125	-377.0691223144531	13.77173614501953	1381.040893554688	-352.6607666015625	57.12233352661133	1100.921997070312	-340.12548828125	-35.17081069946289	1092.445434570312	-318.625732421875	28.70055770874023	896.9734497070312	-495.8047180175781	88.60178375244141	878.5210571289062	-439.4684753417969	73.13819885253906	1034.32763671875	-370.6161193847656	25.12396049499512	708.5277099609375	-530.1949462890625	49.57144927978516	782.1937255859375	-547.064697265625	95.55461120605469	776.2738037109375	-491.00830078125	-162.6569671630859	1651.6689453125	-382.9063415527344	-245.6440277099609	1685.146484375	-591.7457885742188	-145.5073852539062	1683.314697265625	-585.466064453125	-292.7161865234375	1657.656372070312	-436.2906799316406	-392.3521423339844	954.0733032226562	-434.3194580078125	-38.40143966674805	981.9705200195312	-361.9467163085938	-51.28363037109375	1027.840942382812	-465.2392578125	-335.8501586914062	1008.258178710938	-509.2226867675781	-326.1373901367188	511.1571655273438	-595.08544921875	-367.2777099609375	640.0433959960938	-542.4866943359375	-296.8060913085938	30.95296478271484	-621.5634765625	-321.1625061035156	279.6927795410156	-606.9867553710938	-222.0968933105469	59.18222808837891	-826.7466430664062	-185.3743286132812	47.10200119018555	-756.0206909179688	-298.7487487792969	37.85246276855469	-749.0816650390625	-250.4367218017578	35.11074066162109	-555.4063110351562	-95.26541900634766	503.4320983886719	-309.1326599121094	-34.12880325317383	756.0277709960938	-389.6231079101562	-172.5897827148438	54.82737731933594	-98.46745300292969	-118.8712692260742	387.73779296875	-279.6703796386719	-162.7331695556641	39.73405456542969	-310.7911987304688	-216.1053771972656	43.77758026123047	-267.9762878417969	-120.6370849609375	31.87620162963867	-193.6869506835938	-242.2095642089844	75.84577941894531	-52.73096466064453	
369	3.68	-158.9881439208984	1020.394714355469	-290.0814819335938	-278.5190734863281	1021.173461914062	-303.2201232910156	-232.6548309326172	1099.776611328125	-290.168701171875	-206.614013671875	1292.857666015625	-537.2639770507812	-223.7976531982422	1226.790405273438	-284.1007080078125	-222.7650909423828	1490.249877929688	-341.9395446777344	-206.8267669677734	1409.24365234375	-507.9378356933594	-158.5818786621094	1347.613037109375	-263.7672424316406	-333.3558654785156	1451.552490234375	-331.1956787109375	-383.3140258789062	1453.650512695312	-423.5813598632812	-462.5379333496094	1334.31494140625	-394.4501037597656	-488.9891967773438	1124.4580078125	-395.9605102539062	-436.5122680664062	1109.88720703125	-326.3856811523438	-434.9253234863281	891.07177734375	-491.0060729980469	-513.14501953125	874.2533569335938	-460.4256286621094	-503.6246948242188	1017.055236816406	-415.6672973632812	-439.7686462402344	697.8564453125	-484.7810363769531	-508.0789794921875	785.3072509765625	-475.4288330078125	-457.237060546875	789.0022583007812	-520.1190185546875	-48.75019073486328	1448.42626953125	-383.2916259765625	13.75382328033447	1381.707885742188	-358.8812255859375	56.49275207519531	1101.541625976562	-345.9625549316406	-35.92079162597656	1093.218505859375	-325.0087585449219	28.84339904785156	897.1551513671875	-501.2701721191406	88.40913391113281	878.893310546875	-444.5158386230469	72.63386535644531	1034.887084960938	-376.2095642089844	25.39067649841309	708.5723266601562	-534.9549560546875	49.9533576965332	782.1427001953125	-551.94384765625	95.62591552734375	776.4612426757812	-495.6116943359375	-163.0675048828125	1652.253051757812	-388.6678466796875	-245.9315490722656	1686.192138671875	-597.4835205078125	-145.7765808105469	1684.450805664062	-591.1415405273438	-293.0927124023438	1658.253295898438	-442.1452941894531	-392.5247497558594	955.19921875	-441.2481689453125	-37.9622802734375	982.2684326171875	-370.1468200683594	-50.94789123535156	1028.243774414062	-473.4596862792969	-336.0317077636719	1009.289184570312	-516.3394775390625	-325.7688598632812	512.180419921875	-602.3495483398438	-366.2184753417969	641.28857421875	-549.8871459960938	-296.751220703125	31.1461296081543	-621.6790771484375	-320.8871154785156	280.0792846679688	-611.4931640625	-221.7386169433594	55.48379516601562	-827.9120483398438	-185.3032684326172	44.89276123046875	-756.7268676757812	-298.9925231933594	36.59922790527344	-749.5916137695312	-250.3361511230469	35.75419235229492	-555.7386474609375	-94.51416778564453	503.6941833496094	-317.2581481933594	-33.92890930175781	756.2904663085938	-397.8259582519531	-171.8615875244141	57.60470199584961	-99.38433074951172	-118.0009155273438	388.1463317871094	-286.1993103027344	-162.5728759765625	39.71549987792969	-311.0536804199219	-215.8524475097656	44.44366073608398	-268.5359802246094	-120.5210800170898	32.2322883605957	-194.3659973144531	-241.2195281982422	80.14897918701172	-53.98538208007812	
370	3.69	-158.2585296630859	1021.103881835938	-297.7808532714844	-277.8447265625	1021.916809082031	-310.5282287597656	-232.0803375244141	1100.274291992188	-297.3546142578125	-206.5695190429688	1293.910522460938	-543.95361328125	-223.2963409423828	1227.182495117188	-291.0174865722656	-222.8216094970703	1490.736450195312	-348.115966796875	-206.8423156738281	1410.212158203125	-514.31103515625	-158.4618072509766	1347.985107421875	-270.3909912109375	-333.4150390625	1451.944580078125	-337.4040222167969	-383.3390502929688	1454.248168945312	-429.8223876953125	-462.4819641113281	1334.730834960938	-401.3537292480469	-488.630859375	1124.844482421875	-404.1808166503906	-436.3241577148438	1109.915161132812	-334.5973510742188	-434.3465881347656	891.93310546875	-500.3515014648438	-512.71923828125	875.097900390625	-470.0996704101562	-503.1983032226562	1017.576599121094	-424.5267028808594	-439.3749084472656	698.6136474609375	-494.6691589355469	-507.6978149414062	786.1964111328125	-485.3599853515625	-456.62841796875	789.93115234375	-529.8302612304688	-48.74464416503906	1449.2490234375	-389.6424560546875	13.76237869262695	1382.526489257812	-365.2609252929688	55.89046478271484	1102.318725585938	-351.83251953125	-36.63913726806641	1094.157104492188	-331.3958129882812	29.00580406188965	897.4473266601562	-506.72021484375	88.21814727783203	879.389404296875	-449.5291137695312	72.15396881103516	1035.591918945312	-381.8112182617188	25.63577842712402	708.710205078125	-539.5971069335938	50.32083511352539	782.1749267578125	-556.744140625	95.69046020507812	776.7484130859375	-500.1268615722656	-163.4754333496094	1652.924926757812	-394.4417419433594	-246.2216796875	1687.33544921875	-603.2250366210938	-146.0483551025391	1685.677978515625	-596.8328247070312	-293.4755859375	1658.947509765625	-448.0040588378906	-392.7767639160156	956.4057006835938	-448.1829833984375	-37.60993576049805	982.7483520507812	-378.2485656738281	-50.69987106323242	1028.828491210938	-481.5809936523438	-336.2926330566406	1010.400756835938	-523.46240234375	-325.3731384277344	513.0996704101562	-609.4251098632812	-365.2298583984375	642.478271484375	-557.191650390625	-296.6603088378906	31.37839698791504	-621.8289184570312	-320.5604553222656	280.4598083496094	-615.8099975585938	-221.2867126464844	52.34406661987305	-828.9075317382812	-185.1640167236328	43.06825256347656	-757.3131103515625	-299.189697265625	35.77119445800781	-750.0526123046875	-250.2470092773438	36.27090454101562	-556.0668334960938	-93.59184265136719	503.9627380371094	-325.8937377929688	-33.74245452880859	756.7168579101562	-406.1264038085938	-171.0147705078125	60.62882995605469	-100.4499435424805	-116.9246520996094	388.5748901367188	-293.1707763671875	-162.3997955322266	39.70659637451172	-311.3103942871094	-215.5798492431641	45.16534423828125	-269.1590576171875	-120.3527450561523	32.63587951660156	-195.1082305908203	-240.058837890625	84.82544708251953	-55.47261810302734	
